# AST/ASF file generated using VICON BodyLanguage
# -----------------------------------------------
:version 1.10
:name VICON
:units
  mass 1.0
  length 0.45
  angle deg
:documentation
   .ast/.asf automatically generated from VICON data using
   VICON BodyBuilder and BodyLanguage model FoxedUp or BRILLIANT.MOD
:root
   order TX TY TZ RX RY RZ
   axis XYZ
   position 0 0 0  
   orientation 0 0 0 
:bonedata
  begin
     id 1 
     name lhipjoint
     direction 0.621036 -0.695554 0.361275 
     length 2.46325 
     axis 0 0 0  XYZ
  end
  begin
     id 2 
     name lfemur
     direction 0.34202 -0.939693 0  
     length 6.54784  
     axis 0 0 20  XYZ
    dof rx ry rz
    limits (-160.0 20.0)
           (-70.0 70.0)
           (-60.0 70.0)
  end
  begin
     id 3 
     name ltibia
     direction 0.34202 -0.939693 0   
     length 7.84737   
     axis 0 0 20   XYZ
    dof rx
    limits (-10.0 170.0)
  end
  begin
     id 4 
     name lfoot
     direction 0.0790693 -0.217241 0.97291   
     length 2.59747   
     axis -90 7.62852e-016 20   XYZ
    dof rx rz
    limits (-45.0 90.0)
           (-70.0 20.0)
  end
  begin
     id 5 
     name ltoes
     direction 1.53572e-011 -4.21898e-011 1   
     length 1.29919   
     axis -90 7.62852e-016 20   XYZ
    dof rx
    limits (-90.0 20.0)
  end
  begin
     id 6 
     name rhipjoint
     direction -0.602353 -0.708375 0.367935   
     length 2.41867  
     axis 0 0 0  XYZ 
  end
  begin
     id 7 
     name rfemur
     direction -0.34202 -0.939693 0   
     length 6.92065   
     axis 0 0 -20   XYZ
    dof rx ry rz
    limits (-160.0 20.0)
           (-70.0 70.0)
           (-70.0 60.0)
  end
  begin
     id 8 
     name rtibia
     direction -0.34202 -0.939693 0   
     length 7.88883   
     axis 0 0 -20   XYZ
    dof rx
    limits (-10.0 170.0)
 end
 begin
     id 9 
     name rfoot
     direction -0.0768692 -0.211196 0.974416   
     length 2.43714  
     axis -90 -7.62852e-016 -20   XYZ
    dof rx rz
    limits (-45.0 90.0)
           (-20.0 70.0)
  end
  begin
     id 10 
     name rtoes
     direction -1.53575e-011 -4.21933e-011 1   
     length 1.22113   
     axis -90 -7.62852e-016 -20   XYZ
    dof rx
    limits (-90.0 20.0)
  end
  begin
     id 11 
     name lowerback
     direction 0.0197937 0.98943 -0.143655   
     length 2.16931   
     axis 0 0 0   XYZ
    dof rx ry rz
    limits (-20.0 45.0)
           (-30.0 30.0)
           (-30.0 30.0)
  end
  begin
     id 12 
     name upperback
     direction -0.00183968 0.999975 0.00684288   
     length 2.17221   
     axis 0 0 0   XYZ
    dof rx ry rz
    limits (-20.0 45.0)
           (-30.0 30.0)
           (-30.0 30.0)
  end
  begin
     id 13 
     name thorax
     direction -0.00950244 0.997208 0.0740685   
     length 2.22549   
     axis 0 0 0   XYZ
    dof rx ry rz
    limits (-20.0 45.0)
           (-30.0 30.0)
           (-30.0 30.0)
  end
  begin
     id 14 
     name lowerneck
     direction 0.0218238 0.996215 0.0841425   
     length 1.77269   
     axis 0 0 0   XYZ
    dof rx ry rz
    limits (-20.0 45.0)
           (-30.0 30.0)
           (-30.0 30.0)
  end
  begin
     id 15 
     name upperneck
     direction -0.00430652 0.994214 -0.107332   
     length 1.76534   
     axis 0 0 0   XYZ
    dof rx ry rz
    limits (-20.0 45.0)
           (-30.0 30.0)
           (-30.0 30.0)
  end
  begin
     id 16
     name head
     direction -0.00328946 0.998959 -0.0454998  
     length 1.82634  
     axis 0 0 0   XYZ
    dof rx ry rz
    limits (-20.0 45.0)
           (-30.0 30.0)
           (-30.0 30.0)
  end
  begin
     id 17 
     name lclavicle
     direction 0.970962 0.239191 0.00450212  
     length 3.84872  
     axis 0 0 0   XYZ
    dof ry rz
    limits (-20.0 10.0)
           (0.0 20.0)
  end
  begin
     id 18 
     name lhumerus
     direction 1 -4.48966e-011 5.74696e-028   
     length 5.22771   
     axis 180 -30 -90   XYZ
    dof rx ry rz
    limits (-60.0 90.0)
           (-90.0 90.0)
           (-90.0 90.0)
  end
  begin
     id 19
     name lradius
     direction 1 -4.4896e-011 4.25109e-027   
     length 3.45251   
     axis 180 -30 -90   XYZ
    dof rx
    limits (-10.0 170.0)
  end
  begin
     id 20
     name lwrist
     direction 1 -4.48971e-011 1.15382e-027   
     length 1.72626   
     axis -5.52449e-016 90 90   XYZ
    dof ry
    limits (-180.0 0.0)
 end
  begin
     id 21 
     name lhand
     direction 1 -4.49034e-011 2.30765e-027   
     length 0.552119   
     axis -1.47248e-015 90 90   XYZ
    dof rx rz
    limits (-90.0 90.0)
           (-45.0 45.0)
  end
  begin
     id 22 
     name lfingers
     direction 1 -4.48951e-011 4.61529e-027   
     length 0.445133   
     axis -2.94495e-015 90 90   XYZ
    dof rx
    limits (0.0 90.0)
  end
  begin
     id 23
     name lthumb
     direction 0.707107 -6.34991e-011 0.707107   
     length 0.639124   
     axis -90 45 2.85299e-015   XYZ
    dof rx rz
    limits (-45.0 45.0)
           (-45.0 45.0)
  end
  begin
     id 24 
     name rclavicle
     direction -0.97424 0.222511 -0.0366699   
     length 3.73439  
     axis 0 0 0   XYZ 
    dof ry rz
    limits (-10.0 20.0)
           (-20.0 0.0)
  end
  begin
     id 25 
     name rhumerus
     direction -1 -4.48956e-011 -4.97258e-028  
     length 5.2398   
     axis 180 30 90   XYZ
    dof rx ry rz
    limits (-90.0 60.0)
           (-90.0 90.0)
           (-90.0 90.0)
  end
  begin
     id 26 
     name rradius
     direction -1 -4.4897e-011 -1.72611e-027   
     length 3.48042   
     axis 180 30 90   XYZ
    dof rx
    limits (-10.0 170.0)
  end
  begin
     id 27 
     name rwrist
     direction -1 -4.48976e-011 1.15382e-027   
     length 1.74021   
     axis -5.52449e-016 -90 -90   XYZ
    dof ry
    limits (-180.0 0.0)
  end
  begin
     id 28
     name rhand
     direction -1 -4.48963e-011 2.30765e-027   
     length 0.618713   
     axis -1.47248e-015 -90 -90   XYZ
    dof rx rz
    limits (-90.0 90.0)
           (-45.0 45.0)
  end
  begin
     id 29
     name rfingers
     direction -1 -4.4888e-011 4.61529e-027   
     length 0.498823   
     axis -2.94495e-015 -90 -90   XYZ
    dof rx
    limits (0.0 90.0)
  end
  begin
     id 30
     name rthumb
     direction -0.707107 -6.34968e-011 0.707107   
     length 0.716213   
     axis -90 -45 -2.85299e-015   XYZ
    dof rx rz
    limits (-45.0 45.0)
           (-45.0 45.0)
  end
:hierarchy
  begin
    root lhipjoint rhipjoint lowerback
    lhipjoint lfemur
    lfemur ltibia
    ltibia lfoot
    lfoot ltoes
    rhipjoint rfemur
    rfemur rtibia
    rtibia rfoot
    rfoot rtoes
    lowerback upperback
    upperback thorax
    thorax lowerneck lclavicle rclavicle
    lowerneck upperneck
    upperneck head
    lclavicle lhumerus
    lhumerus lradius
    lradius lwrist
    lwrist lhand lthumb
    lhand lfingers
    rclavicle rhumerus
    rhumerus rradius
    rradius rwrist
    rwrist rhand rthumb
    rhand rfingers
  end

#!OML:ASF G:\JayActor3\Patient Classification 1\Patient 1\Session 5\male.ASF
:FULLY-SPECIFIED
:DEGREES
185
root 46.5032 17.4709 -4.48137 -55.8136 83.1811 -54.4608
lowerback -0.523403 -0.70042 5.44888
upperback 1.45968 -1.00398 0.276286
thorax 1.70865 -0.422664 -2.78847
lowerneck -7.80119 0.628789 1.65389
upperneck 14.1262 0.546584 1.38547
head 5.54599 0.501601 0.204909
rclavicle -6.83943e-015 -4.77083e-015
rhumerus -33.9017 -3.54462 -86.6044
rradius 33.0903
rwrist -2.21388
rhand -22.9273 -29.4578
rfingers 7.12502
rthumb 3.51329 -59.4085
lclavicle -6.83943e-015 -4.77083e-015
lhumerus -35.1147 6.19963 80.8786
lradius 28.6584
lwrist 17.9077
lhand -16.1801 11.528
lfingers 7.12502
lthumb 10.0265 41.2691
rfemur 5.90979 3.685 25.7347
rtibia 28.4633
rfoot 14.4741 -9.03767
rtoes -3.46723
lfemur -10.317 10.5967 -15.3496
ltibia 18.4416
lfoot 14.9439 -1.46662
ltoes -26.8187
186
root 46.4044 17.4757 -4.45398 -55.5146 83.1396 -54.1755
lowerback -0.454148 -0.667136 5.44368
upperback 1.50784 -0.95613 0.280984
thorax 1.72376 -0.397282 -2.77931
lowerneck -7.78753 0.618133 1.65139
upperneck 14.0181 0.530167 1.3986
head 5.50989 0.492293 0.207748
rclavicle -7.48549e-015 7.95139e-016
rhumerus -33.783 -3.40023 -86.7056
rradius 33.2382
rwrist -2.2301
rhand -22.922 -29.6491
rfingers 7.12502
rthumb 3.51843 -59.5998
lclavicle -7.48549e-015 7.95139e-016
lhumerus -35.1376 6.25811 80.8815
lradius 28.6548
lwrist 17.9384
lhand -16.1925 11.5345
lfingers 7.12502
lthumb 10.0144 41.2762
rfemur 5.80355 3.64161 25.9596
rtibia 28.2549
rfoot 13.855 -8.93914
rtoes -4.48117
lfemur -10.665 10.421 -15.2518
ltibia 18.3193
lfoot 15.557 -1.09633
ltoes -26.4251
187
root 46.3033 17.4812 -4.42572 -55.3132 83.1169 -53.9917
lowerback -0.37042 -0.642008 5.42165
upperback 1.55388 -0.917904 0.283312
thorax 1.72785 -0.377277 -2.76315
lowerneck -7.77366 0.609369 1.64749
upperneck 13.9034 0.5159 1.4161
head 5.47169 0.484134 0.212314
rclavicle 1.71328e-014 2.34566e-014
rhumerus -33.6652 -3.25692 -86.81
rradius 33.3751
rwrist -2.23284
rhand -22.9232 -29.8106
rfingers 7.12502
rthumb 3.51723 -59.7614
lclavicle 1.71328e-014 2.34566e-014
lhumerus -35.1632 6.30338 80.887
lradius 28.6647
lwrist 17.9867
lhand -16.2196 11.5125
lfingers 7.12502
lthumb 9.98832 41.2555
rfemur 5.67789 3.62398 26.1971
rtibia 28.0652
rfoot 13.2158 -8.90386
rtoes -5.58598
lfemur -11.0276 10.2284 -15.1565
ltibia 18.1839
lfoot 16.2391 -0.695215
ltoes -25.9463
188
root 46.2 17.4874 -4.39662 -55.2838 83.1144 -53.9897
lowerback -0.269593 -0.625322 5.39041
upperback 1.58834 -0.889406 0.283504
thorax 1.70955 -0.363102 -2.74393
lowerneck -7.75294 0.599738 1.64162
upperneck 13.7916 0.500398 1.43861
head 5.43325 0.475707 0.218682
rclavicle 7.82715e-015 -1.74931e-014
rhumerus -33.5655 -3.11771 -86.9166
rradius 33.5042
rwrist -2.24001
rhand -22.9238 -29.9674
rfingers 7.12502
rthumb 3.51665 -59.9182
lclavicle 7.82715e-015 -1.74931e-014
lhumerus -35.1994 6.33245 80.8942
lradius 28.6833
lwrist 18.0392
lhand -16.2444 11.4889
lfingers 7.12502
lthumb 9.96441 41.233
rfemur 5.52961 3.61674 26.4471
rtibia 27.8844
rfoot 12.5672 -8.95036
rtoes -6.69456
lfemur -11.4127 10.0179 -15.0598
ltibia 18.0382
lfoot 16.9816 -0.26201
ltoes -25.3703
189
root 46.0951 17.4942 -4.36695 -55.4366 83.1358 -54.1784
lowerback -0.149896 -0.616011 5.35342
upperback 1.60822 -0.869109 0.27922
thorax 1.66486 -0.354098 -2.72595
lowerneck -7.72554 0.586584 1.63004
upperneck 13.6897 0.479991 1.47058
head 5.39671 0.465476 0.228628
rclavicle -8.18744e-015 -3.57812e-015
rhumerus -33.4926 -2.99758 -87.0191
rradius 33.6273
rwrist -2.24336
rhand -22.9179 -30.1018
rfingers 7.12502
rthumb 3.52237 -60.0525
lclavicle -8.18744e-015 -3.57812e-015
lhumerus -35.2459 6.34096 80.9027
lradius 28.7002
lwrist 18.0865
lhand -16.2671 11.4626
lfingers 7.12502
lthumb 9.94248 41.2078
rfemur 5.36075 3.60647 26.6978
rtibia 27.7057
rfoot 11.9316 -9.05895
rtoes -7.78286
lfemur -11.8165 9.78837 -14.965
ltibia 17.8812
lfoot 17.7775 0.22114
ltoes -24.6617
190
root 45.9888 17.5013 -4.33664 -55.8009 83.1869 -54.5896
lowerback -0.016522 -0.614826 5.30695
upperback 1.61376 -0.858404 0.269465
thorax 1.59688 -0.350909 -2.7082
lowerneck -7.70569 0.570655 1.61929
upperneck 13.6117 0.455068 1.50717
head 5.36895 0.453875 0.239705
rclavicle -3.16316e-014 -9.54166e-015
rhumerus -33.4462 -2.89604 -87.1175
rradius 33.7458
rwrist -2.23731
rhand -22.9019 -30.2192
rfingers 7.12502
rthumb 3.53781 -60.1696
lclavicle -3.16316e-014 -9.54166e-015
lhumerus -35.2979 6.33216 80.911
lradius 28.709
lwrist 18.1211
lhand -16.2761 11.4365
lfingers 7.12502
lthumb 9.93378 41.1821
rfemur 5.1697 3.58622 26.9411
rtibia 27.5253
rfoot 11.3156 -9.21447
rtoes -8.69434
lfemur -12.2404 9.54429 -14.8763
ltibia 17.7107
lfoot 18.6139 0.748501
ltoes -23.8047
191
root 45.8818 17.5084 -4.30605 -56.3735 83.2633 -55.2231
lowerback 0.123008 -0.621015 5.25718
upperback 1.60452 -0.856906 0.255371
thorax 1.50938 -0.353157 -2.69302
lowerneck -7.69987 0.554611 1.60571
upperneck 13.567 0.429074 1.5515
head 5.35394 0.442792 0.253784
rclavicle 1.2834e-014 -1.31198e-014
rhumerus -33.4301 -2.80684 -87.2141
rradius 33.8739
rwrist -2.23647
rhand -22.8657 -30.3934
rfingers 7.12502
rthumb 3.57284 -60.3432
lclavicle 1.2834e-014 -1.31198e-014
lhumerus -35.3519 6.3182 80.916
lradius 28.7012
lwrist 18.1337
lhand -16.274 11.4075
lfingers 7.12502
lthumb 9.93579 41.153
rfemur 4.95372 3.54854 27.1696
rtibia 27.344
rfoot 10.7246 -9.38287
rtoes -9.53656
lfemur -12.6809 9.29537 -14.7939
ltibia 17.5203
lfoot 19.4773 1.30481
ltoes -22.835
192
root 45.7745 17.5154 -4.27575 -57.1146 83.3722 -56.0365
lowerback 0.259911 -0.632162 5.20093
upperback 1.58494 -0.862099 0.233003
thorax 1.41213 -0.359253 -2.68274
lowerneck -7.70015 0.529803 1.58831
upperneck 13.5387 0.391503 1.59666
head 5.34509 0.426245 0.268046
rclavicle -2.72583e-014 -1.94809e-014
rhumerus -33.44 -2.72848 -87.3065
rradius 34.0116
rwrist -2.25164
rhand -22.8102 -30.6418
rfingers 7.12502
rthumb 3.62635 -60.5907
lclavicle -2.72583e-014 -1.94809e-014
lhumerus -35.4079 6.29702 80.92
lradius 28.6805
lwrist 18.1205
lhand -16.2561 11.372
lfingers 7.12502
lthumb 9.9531 41.1167
rfemur 4.71733 3.48372 27.3622
rtibia 27.1632
rfoot 10.1605 -9.53795
rtoes -10.2422
lfemur -13.1304 9.04608 -14.7319
ltibia 17.3091
lfoot 20.3558 1.88831
ltoes -21.7445
193
root 45.6674 17.522 -4.24591 -58.0331 83.5034 -57.0412
lowerback 0.386127 -0.648311 5.14453
upperback 1.55555 -0.87465 0.206309
thorax 1.31012 -0.369316 -2.67691
lowerneck -7.70582 0.502407 1.56684
upperneck 13.5273 0.350319 1.64599
head 5.34241 0.408359 0.284122
rclavicle 5.66536e-015 -3.22031e-014
rhumerus -33.4772 -2.65229 -87.3931
rradius 34.1591
rwrist -2.27255
rhand -22.7231 -30.947
rfingers 7.12502
rthumb 3.71051 -60.8945
lclavicle 5.66536e-015 -3.22031e-014
lhumerus -35.4657 6.27206 80.9243
lradius 28.6473
lwrist 18.091
lhand -16.2325 11.3361
lfingers 7.12502
lthumb 9.97582 41.0797
rfemur 4.45829 3.39212 27.522
rtibia 26.9851
rfoot 9.62191 -9.66383
rtoes -10.7577
lfemur -13.5876 8.81361 -14.6842
ltibia 17.0793
lfoot 21.2253 2.47109
ltoes -20.58
194
root 45.5612 17.5277 -4.21694 -59.123 83.6433 -58.227
lowerback 0.492994 -0.667445 5.10056
upperback 1.52422 -0.892592 0.177112
thorax 1.2164 -0.381711 -2.68082
lowerneck -7.7174 0.469381 1.53886
upperneck 13.5192 0.301762 1.69819
head 5.34177 0.386803 0.301687
rclavicle -2.01891e-014 1.59028e-014
rhumerus -33.5332 -2.57178 -87.4762
rradius 34.314
rwrist -2.30312
rhand -22.6093 -31.2947
rfingers 7.12502
rthumb 3.8204 -61.2402
lclavicle -2.01891e-014 1.59028e-014
lhumerus -35.5255 6.25061 80.9274
lradius 28.6152
lwrist 18.0461
lhand -16.1995 11.3047
lfingers 7.12502
lthumb 10.0077 41.0468
rfemur 4.18444 3.2716 27.6528
rtibia 26.8118
rfoot 9.10814 -9.74546
rtoes -11.0074
lfemur -14.0442 8.61228 -14.6427
ltibia 16.8391
lfoot 22.0749 3.02427
ltoes -19.3831
195
root 45.4563 17.5323 -4.18909 -60.3785 83.7811 -59.5899
lowerback 0.571441 -0.686852 5.07848
upperback 1.49544 -0.912884 0.146827
thorax 1.14081 -0.394497 -2.69844
lowerneck -7.74262 0.435439 1.50836
upperneck 13.5135 0.251343 1.75376
head 5.34426 0.364488 0.320638
rclavicle 4.55962e-015 3.57812e-015
rhumerus -33.6016 -2.49193 -87.5524
rradius 34.4725
rwrist -2.33435
rhand -22.4866 -31.6116
rfingers 7.12502
rthumb 3.93885 -61.555
lclavicle 4.55962e-015 3.57812e-015
lhumerus -35.578 6.2255 80.9317
lradius 28.5796
lwrist 17.9977
lhand -16.1624 11.2704
lfingers 7.12502
lthumb 10.0435 41.0107
rfemur 3.89265 3.11918 27.7591
rtibia 26.6473
rfoot 8.62332 -9.76712
rtoes -11.0552
lfemur -14.4995 8.44288 -14.5992
ltibia 16.6017
lfoot 22.8767 3.54256
ltoes -18.18
196
root 45.3528 17.5356 -4.16236 -61.8165 83.9038 -61.1478
lowerback 0.621877 -0.70563 5.0888
upperback 1.46785 -0.934159 0.118453
thorax 1.0817 -0.406985 -2.73258
lowerneck -7.76862 0.399564 1.47905
upperneck 13.4979 0.198796 1.80421
head 5.34384 0.340635 0.337602
rclavicle 1.83876e-015 2.10712e-014
rhumerus -33.685 -2.41548 -87.6206
rradius 34.6329
rwrist -2.36266
rhand -22.3584 -31.874
rfingers 7.12502
rthumb 4.06264 -61.815
lclavicle 1.83876e-015 2.10712e-014
lhumerus -35.6319 6.19415 80.9374
lradius 28.5521
lwrist 17.9516
lhand -16.1235 11.2399
lfingers 7.12502
lthumb 10.081 40.9784
rfemur 3.57865 2.93209 27.8527
rtibia 26.4982
rfoot 8.16416 -9.73163
rtoes -10.918
lfemur -14.9514 8.3083 -14.54
ltibia 16.3777
lfoot 23.5938 3.97487
ltoes -17.0796
197
root 45.2504 17.5372 -4.13686 -63.4154 83.9941 -62.874
lowerback 0.650755 -0.719921 5.14543
upperback 1.4449 -0.950845 0.0955154
thorax 1.03932 -0.41618 -2.78737
lowerneck -7.7954 0.360483 1.44531
upperneck 13.4658 0.142329 1.85531
head 5.33848 0.314348 0.355157
rclavicle 4.19933e-015 6.75868e-015
rhumerus -33.7746 -2.34063 -87.6809
rradius 34.7921
rwrist -2.40508
rhand -22.2349 -32.0904
rfingers 7.12502
rthumb 4.18191 -62.0291
lclavicle 4.19933e-015 6.75868e-015
lhumerus -35.679 6.1512 80.9482
lradius 28.529
lwrist 17.9149
lhand -16.084 11.2174
lfingers 7.12502
lthumb 10.1192 40.9541
rfemur 3.23901 2.70807 27.9485
rtibia 26.3784
rfoot 7.73308 -9.63339
rtoes -10.6991
lfemur -15.3881 8.20122 -14.4466
ltibia 16.1708
lfoot 24.1836 4.31791
ltoes -16.1313
